<svg width="31" height="30" viewBox="0 0 31 30" fill="none" xmlns="http://www.w3.org/2000/svg">
<path d="M29.8617 4.64445L21.5784 27.8611C21.3803 28.4377 21.0064 28.9377 20.5094 29.2908C20.0124 29.644 19.4172 29.8325 18.8076 29.8299C18.2049 29.8367 17.615 29.6567 17.1188 29.3146C16.6226 28.9725 16.2446 28.4851 16.0367 27.9194L12.9451 19.8694L15.1909 17.6236L18.8221 13.9924C19.0968 13.7178 19.251 13.3453 19.251 12.957C19.251 12.5686 19.0968 12.1961 18.8221 11.9215C18.5475 11.6469 18.1751 11.4927 17.7867 11.4927C17.3984 11.4927 17.0259 11.6469 16.7513 11.9215L13.1201 15.5528L10.8159 17.8132L2.78048 14.707C2.18042 14.5262 1.65454 14.157 1.28074 13.654C0.906931 13.151 0.705078 12.5409 0.705078 11.9142C0.705078 11.2876 0.906931 10.6775 1.28074 10.1745C1.65454 9.67152 2.18042 9.30229 2.78048 9.12154L26.0555 0.838203C26.5877 0.619525 27.1728 0.563177 27.737 0.676251C28.3012 0.789324 28.8194 1.06677 29.2263 1.47366C29.6332 1.88055 29.9106 2.39871 30.0237 2.96292C30.1368 3.52714 30.0804 4.11219 29.8617 4.64445Z" fill="white"/>
</svg>
